<?xml version="1.0" standalone="no"?><!DOCTYPE svg PUBLIC "-//W3C//DTD SVG 1.1//EN" "http://www.w3.org/Graphics/SVG/1.1/DTD/svg11.dtd"><svg t="1647269925344" class="icon" viewBox="0 0 1024 1024" version="1.1" xmlns="http://www.w3.org/2000/svg" p-id="11880" xmlns:xlink="http://www.w3.org/1999/xlink" width="200" height="200"><defs><style type="text/css"></style></defs><path d="M857.6 198.4c28.237 0 51.2 22.963 51.2 51.2V896c0 28.237-22.963 51.2-51.2 51.2H315.725c-28.237 0-51.2-22.963-51.2-51.2V249.6c0-28.237 22.963-51.2 51.2-51.2H857.6m0-51.2H315.725c-56.32 0-102.4 46.08-102.4 102.4V896c0 56.32 46.08 102.4 102.4 102.4H857.6c56.32 0 102.4-46.08 102.4-102.4V249.6c0-56.32-46.08-102.4-102.4-102.4z" p-id="11881" fill="#5a5f6d"></path><path d="M163.558 828.16c-27.443 0-49.779-21.824-49.779-48.64V122.88c0-26.816 22.336-48.64 49.78-48.64h547.558c27.443 0 49.779 21.824 49.779 48.64h49.78c0-53.504-44.8-97.28-99.56-97.28H163.559C108.8 25.6 64 69.376 64 122.88v656.64c0 53.504 44.8 97.28 99.558 97.28h99.559v-48.64h-99.559z" p-id="11882" fill="#5a5f6d"></path></svg>