<svg viewBox="0 0 400 400" xmlns:xlink="http://www.w3.org/1999/xlink" xmlns="http://www.w3.org/2000/svg" id="图层_1"><defs><style>.cls-1{fill:url(#未命名的渐变_7);}.cls-2{fill:url(#未命名的渐变_33);}.cls-3{fill:#c4c4c4;}.cls-3,.cls-77{opacity:0.6;}.cls-4,.cls-5{fill:#cecece;}.cls-5{opacity:0.5;}.cls-6{fill:#eaeaea;}.cls-7{fill:url(#未命名的渐变_7-2);}.cls-8{fill:url(#未命名的渐变_7-3);}.cls-9{fill:url(#未命名的渐变_7-4);}.cls-10{fill:url(#未命名的渐变_7-5);}.cls-11{fill:url(#未命名的渐变_7-6);}.cls-12{fill:url(#未命名的渐变_7-7);}.cls-13{fill:url(#未命名的渐变_7-8);}.cls-14{fill:url(#未命名的渐变_7-9);}.cls-15{fill:url(#未命名的渐变_7-10);}.cls-16{fill:url(#未命名的渐变_7-11);}.cls-17{fill:url(#未命名的渐变_7-12);}.cls-18{fill:url(#未命名的渐变_7-13);}.cls-19{fill:url(#未命名的渐变_7-14);}.cls-20{fill:url(#未命名的渐变_7-15);}.cls-21{fill:url(#未命名的渐变_7-16);}.cls-22{fill:url(#未命名的渐变_37);}.cls-23{fill:url(#未命名的渐变_37-2);}.cls-24{fill:url(#未命名的渐变_58);}.cls-25{fill:url(#未命名的渐变_7-17);}.cls-26{fill:url(#未命名的渐变_7-18);}.cls-27{fill:url(#未命名的渐变_7-19);}.cls-28{fill:url(#未命名的渐变_7-20);}.cls-29{clip-path:url(#clip-path);}.cls-30{fill:url(#未命名的渐变_7-22);}.cls-31{fill:url(#未命名的渐变_7-23);}.cls-32{fill:url(#未命名的渐变_7-24);}.cls-33{fill:url(#未命名的渐变_7-25);}.cls-34{fill:url(#未命名的渐变_7-26);}.cls-35{fill:url(#未命名的渐变_7-27);}.cls-36{fill:url(#未命名的渐变_7-28);}.cls-37{fill:url(#未命名的渐变_7-29);}.cls-38{fill:url(#未命名的渐变_7-30);}.cls-39{fill:url(#未命名的渐变_7-31);}.cls-40{fill:url(#未命名的渐变_7-32);}.cls-41{fill:url(#未命名的渐变_7-33);}.cls-42{fill:url(#未命名的渐变_7-34);}.cls-43{fill:url(#未命名的渐变_7-35);}.cls-44{fill:url(#未命名的渐变_7-36);}.cls-45{fill:url(#未命名的渐变_7-37);}.cls-46{fill:url(#未命名的渐变_7-38);}.cls-47{fill:url(#未命名的渐变_7-39);}.cls-48{fill:url(#未命名的渐变_7-40);}.cls-49{fill:url(#未命名的渐变_7-41);}.cls-50{fill:url(#未命名的渐变_7-42);}.cls-51{fill:url(#未命名的渐变_7-43);}.cls-52{fill:url(#未命名的渐变_7-44);}.cls-53{fill:url(#未命名的渐变_7-45);}.cls-54{fill:url(#未命名的渐变_7-46);}.cls-55{fill:url(#未命名的渐变_7-47);}.cls-56{fill:url(#未命名的渐变_7-48);}.cls-57{fill:url(#未命名的渐变_7-49);}.cls-58{fill:url(#未命名的渐变_7-50);}.cls-59{fill:url(#未命名的渐变_7-51);}.cls-60{fill:url(#未命名的渐变_7-52);}.cls-61{fill:url(#未命名的渐变_7-53);}.cls-62{fill:url(#未命名的渐变_7-54);}.cls-63{fill:url(#未命名的渐变_7-55);}.cls-64{fill:url(#未命名的渐变_7-56);}.cls-65{fill:url(#未命名的渐变_7-57);}.cls-66{fill:url(#未命名的渐变_7-58);}.cls-67{fill:url(#未命名的渐变_7-59);}.cls-68{fill:url(#未命名的渐变_7-60);}.cls-69{fill:url(#未命名的渐变_7-61);}.cls-70{fill:url(#未命名的渐变_7-62);}.cls-71{fill:url(#未命名的渐变_7-63);}.cls-72{fill:url(#未命名的渐变_7-64);}.cls-73{fill:url(#未命名的渐变_7-65);}.cls-74{fill:#e6e6e6;stroke:#afafaf;}.cls-74,.cls-75{stroke-miterlimit:10;}.cls-75{stroke:#d1d1d1;fill:url(#未命名的渐变_7-66);}.cls-76{fill:url(#未命名的渐变_7-67);}.cls-77{fill:url(#未命名的渐变_7-68);}.cls-78{opacity:0.7;fill:url(#未命名的渐变_7-69);}.cls-79{fill:url(#未命名的渐变_7-70);}.cls-80{fill:url(#未命名的渐变_37-3);}.cls-81{fill:url(#未命名的渐变_37-4);}</style><linearGradient gradientUnits="userSpaceOnUse" gradientTransform="matrix(0.76, 0.65, -0.65, 0.76, 564.55, -599.25)" y2="873.25" x2="190.52" y1="841.46" x1="243.94" id="未命名的渐变_7"><stop stop-color="#f0eff2" offset="0"></stop><stop stop-color="#c6c5cc" offset="1"></stop></linearGradient><linearGradient gradientUnits="userSpaceOnUse" y2="395.01" x2="196.65" y1="148.22" x1="211.23" id="未命名的渐变_33"><stop stop-color="#f0eff2" offset="0"></stop><stop stop-opacity="0.95" stop-color="#edecef" offset="0.01"></stop><stop stop-opacity="0.75" stop-color="#e1e0e4" offset="0.08"></stop><stop stop-opacity="0.57" stop-color="#d7d6da" offset="0.16"></stop><stop stop-opacity="0.42" stop-color="#cecdd1" offset="0.23"></stop><stop stop-opacity="0.29" stop-color="#c6c5ca" offset="0.32"></stop><stop stop-opacity="0.18" stop-color="#c0bfc4" offset="0.4"></stop><stop stop-opacity="0.1" stop-color="#bbbac0" offset="0.5"></stop><stop stop-opacity="0.04" stop-color="#b8b7bc" offset="0.62"></stop><stop stop-opacity="0.01" stop-color="#b6b5bb" offset="0.75"></stop><stop stop-opacity="0" stop-color="#b5b4ba" offset="1"></stop></linearGradient><linearGradient xlink:href="#未命名的渐变_7" gradientTransform="matrix(1, 0, 0, 1, 0, 0)" y2="229.83" x2="39.07" y1="198.31" x1="69.94" id="未命名的渐变_7-2"></linearGradient><linearGradient xlink:href="#未命名的渐变_7" gradientTransform="matrix(1, 0, 0, 1, 0, 0)" y2="218.07" x2="56.16" y1="216.44" x1="56.73" id="未命名的渐变_7-3"></linearGradient><linearGradient xlink:href="#未命名的渐变_7" gradientTransform="matrix(1, 0, 0, 1, 0, 0)" y2="227.52" x2="54.46" y1="227.77" x1="55.77" id="未命名的渐变_7-4"></linearGradient><linearGradient xlink:href="#未命名的渐变_7" gradientTransform="matrix(1, 0, 0, 1, 0, 0)" y2="227" x2="314.65" y1="207.51" x1="333.74" id="未命名的渐变_7-5"></linearGradient><linearGradient xlink:href="#未命名的渐变_7" gradientTransform="matrix(1, 0, 0, 1, 0, 0)" y2="219.73" x2="325.22" y1="218.72" x1="325.57" id="未命名的渐变_7-6"></linearGradient><linearGradient xlink:href="#未命名的渐变_7" gradientTransform="matrix(1, 0, 0, 1, 0, 0)" y2="225.57" x2="324.17" y1="225.72" x1="324.98" id="未命名的渐变_7-7"></linearGradient><linearGradient xlink:href="#未命名的渐变_7" gradientTransform="matrix(1, 0, 0, 1, 0, 0)" y2="271.57" x2="360.9" y1="260.32" x1="371.92" id="未命名的渐变_7-8"></linearGradient><linearGradient xlink:href="#未命名的渐变_7" gradientTransform="matrix(1, 0, 0, 1, 0, 0)" y2="267.38" x2="367" y1="266.79" x1="367.2" id="未命名的渐变_7-9"></linearGradient><linearGradient xlink:href="#未命名的渐变_7" gradientTransform="matrix(1, 0, 0, 1, 0, 0)" y2="270.75" x2="366.39" y1="270.84" x1="366.86" id="未命名的渐变_7-10"></linearGradient><linearGradient xlink:href="#未命名的渐变_7" gradientTransform="matrix(1, 0, 0, 1, 0, 0)" y2="244.51" x2="301.93" y1="233.26" x1="312.94" id="未命名的渐变_7-11"></linearGradient><linearGradient xlink:href="#未命名的渐变_7" gradientTransform="matrix(1, 0, 0, 1, 0, 0)" y2="240.31" x2="308.02" y1="239.73" x1="308.23" id="未命名的渐变_7-12"></linearGradient><linearGradient xlink:href="#未命名的渐变_7" gradientTransform="matrix(1, 0, 0, 1, 0, 0)" y2="243.68" x2="307.42" y1="243.77" x1="307.89" id="未命名的渐变_7-13"></linearGradient><linearGradient xlink:href="#未命名的渐变_7" gradientTransform="matrix(1, 0, 0, 1, 0, 0)" y2="243.55" x2="77.35" y1="229.04" x1="91.55" id="未命名的渐变_7-14"></linearGradient><linearGradient xlink:href="#未命名的渐变_7" gradientTransform="matrix(1, 0, 0, 1, 0, 0)" y2="238.14" x2="85.21" y1="237.39" x1="85.47" id="未命名的渐变_7-15"></linearGradient><linearGradient xlink:href="#未命名的渐变_7" gradientTransform="matrix(1, 0, 0, 1, 0, 0)" y2="242.49" x2="84.43" y1="242.6" x1="85.03" id="未命名的渐变_7-16"></linearGradient><linearGradient gradientUnits="userSpaceOnUse" y2="139.59" x2="134.89" y1="112.69" x1="123.83" id="未命名的渐变_37"><stop stop-color="#f0eff2" offset="0"></stop><stop stop-opacity="0" stop-color="#c6c5cc" offset="1"></stop></linearGradient><linearGradient xlink:href="#未命名的渐变_37" y2="143.92" x2="120.17" y1="128.69" x1="113.91" id="未命名的渐变_37-2"></linearGradient><linearGradient gradientUnits="userSpaceOnUse" gradientTransform="matrix(0.76, 0.65, -0.65, 0.76, 564.55, -599.25)" y2="789.85" x2="287.01" y1="789.85" x1="140.72" id="未命名的渐变_58"><stop stop-color="#f0eff2" offset="0"></stop><stop stop-color="#ebeaed" offset="0.04"></stop><stop stop-color="#d6d5db" offset="0.2"></stop><stop stop-color="#cac9d0" offset="0.37"></stop><stop stop-color="#c6c5cc" offset="0.53"></stop><stop stop-color="#cac9d0" offset="0.68"></stop><stop stop-color="#d6d5da" offset="0.82"></stop><stop stop-color="#e9e8ec" offset="0.96"></stop><stop stop-color="#f0eff2" offset="1"></stop></linearGradient><linearGradient xlink:href="#未命名的渐变_7" y2="808.54" x2="154.87" y1="721.13" x1="318.17" id="未命名的渐变_7-17"></linearGradient><linearGradient xlink:href="#未命名的渐变_7" gradientTransform="matrix(1, 0, 0, 1, 0, 0)" y2="82.48" x2="267.2" y1="42.21" x1="305.82" id="未命名的渐变_7-18"></linearGradient><linearGradient xlink:href="#未命名的渐变_7" y2="830.63" x2="213.87" y1="844.37" x1="213.75" id="未命名的渐变_7-19"></linearGradient><linearGradient xlink:href="#未命名的渐变_7" y2="859.35" x2="223.25" y1="841.49" x1="260.13" id="未命名的渐变_7-20"></linearGradient><clipPath id="clip-path"><path d="M158.09,210.24c-5.18-16.7.65-29.64,13.45-34.05l18,15.24C187.23,204.77,175.41,212.64,158.09,210.24Z" class="cls-1"></path></clipPath><linearGradient xlink:href="#未命名的渐变_7" gradientTransform="translate(1019.3 -10.89) rotate(90)" y2="868.42" x2="187.65" y1="836.63" x1="241.06" id="未命名的渐变_7-22"></linearGradient><linearGradient xlink:href="#未命名的渐变_7" gradientTransform="translate(1020.94 -11.65) rotate(90)" y2="869.37" x2="188.21" y1="837.58" x1="241.63" id="未命名的渐变_7-23"></linearGradient><linearGradient xlink:href="#未命名的渐变_7" gradientTransform="translate(1021.49 -11.9) rotate(90)" y2="869.69" x2="188.4" y1="837.89" x1="241.81" id="未命名的渐变_7-24"></linearGradient><linearGradient xlink:href="#未命名的渐变_7" gradientTransform="translate(1022.04 -12.16) rotate(90)" y2="870" x2="188.59" y1="838.21" x1="242" id="未命名的渐变_7-25"></linearGradient><linearGradient xlink:href="#未命名的渐变_7" gradientTransform="translate(1022.59 -12.41) rotate(90)" y2="870.32" x2="188.78" y1="838.52" x1="242.19" id="未命名的渐变_7-26"></linearGradient><linearGradient xlink:href="#未命名的渐变_7" gradientTransform="translate(1023.13 -12.66) rotate(90)" y2="870.64" x2="188.96" y1="838.84" x1="242.38" id="未命名的渐变_7-27"></linearGradient><linearGradient xlink:href="#未命名的渐变_7" gradientTransform="translate(1023.68 -12.92) rotate(90)" y2="870.95" x2="189.15" y1="839.15" x1="242.57" id="未命名的渐变_7-28"></linearGradient><linearGradient xlink:href="#未命名的渐变_7" gradientTransform="translate(1024.23 -13.17) rotate(90)" y2="871.27" x2="189.34" y1="839.47" x1="242.75" id="未命名的渐变_7-29"></linearGradient><linearGradient xlink:href="#未命名的渐变_7" gradientTransform="translate(1024.78 -13.42) rotate(90)" y2="871.58" x2="189.53" y1="839.78" x1="242.94" id="未命名的渐变_7-30"></linearGradient><linearGradient xlink:href="#未命名的渐变_7" gradientTransform="translate(1025.32 -13.68) rotate(90)" y2="871.9" x2="189.72" y1="840.1" x1="243.13" id="未命名的渐变_7-31"></linearGradient><linearGradient xlink:href="#未命名的渐变_7" gradientTransform="translate(1025.87 -13.93) rotate(90)" y2="872.21" x2="189.9" y1="840.42" x1="243.32" id="未命名的渐变_7-32"></linearGradient><linearGradient xlink:href="#未命名的渐变_7" gradientTransform="translate(1026.42 -14.18) rotate(90)" y2="872.53" x2="190.09" y1="840.73" x1="243.51" id="未命名的渐变_7-33"></linearGradient><linearGradient xlink:href="#未命名的渐变_7" gradientTransform="translate(1026.97 -14.44) rotate(90)" y2="872.84" x2="190.28" y1="841.05" x1="243.69" id="未命名的渐变_7-34"></linearGradient><linearGradient xlink:href="#未命名的渐变_7" gradientTransform="translate(1027.51 -14.69) rotate(90)" y2="873.16" x2="190.47" y1="841.36" x1="243.88" id="未命名的渐变_7-35"></linearGradient><linearGradient xlink:href="#未命名的渐变_7" gradientTransform="translate(1028.06 -14.94) rotate(90)" y2="873.48" x2="190.65" y1="841.68" x1="244.07" id="未命名的渐变_7-36"></linearGradient><linearGradient xlink:href="#未命名的渐变_7" gradientTransform="translate(1028.61 -15.2) rotate(90)" y2="873.79" x2="190.84" y1="841.99" x1="244.26" id="未命名的渐变_7-37"></linearGradient><linearGradient xlink:href="#未命名的渐变_7" gradientTransform="translate(1029.16 -15.45) rotate(90)" y2="874.11" x2="191.03" y1="842.31" x1="244.44" id="未命名的渐变_7-38"></linearGradient><linearGradient xlink:href="#未命名的渐变_7" gradientTransform="translate(1029.7 -15.71) rotate(90)" y2="874.42" x2="191.22" y1="842.62" x1="244.63" id="未命名的渐变_7-39"></linearGradient><linearGradient xlink:href="#未命名的渐变_7" gradientTransform="translate(1030.25 -15.96) rotate(90)" y2="874.74" x2="191.41" y1="842.94" x1="244.82" id="未命名的渐变_7-40"></linearGradient><linearGradient xlink:href="#未命名的渐变_7" gradientTransform="translate(1030.8 -16.21) rotate(90)" y2="875.05" x2="191.59" y1="843.26" x1="245.01" id="未命名的渐变_7-41"></linearGradient><linearGradient xlink:href="#未命名的渐变_7" gradientTransform="translate(1031.35 -16.47) rotate(90)" y2="875.37" x2="191.78" y1="843.57" x1="245.2" id="未命名的渐变_7-42"></linearGradient><linearGradient xlink:href="#未命名的渐变_7" gradientTransform="translate(1031.89 -16.72) rotate(90)" y2="875.69" x2="191.97" y1="843.89" x1="245.38" id="未命名的渐变_7-43"></linearGradient><linearGradient xlink:href="#未命名的渐变_7" gradientTransform="translate(1032.44 -16.97) rotate(90)" y2="876" x2="192.16" y1="844.2" x1="245.57" id="未命名的渐变_7-44"></linearGradient><linearGradient xlink:href="#未命名的渐变_7" gradientTransform="translate(1032.99 -17.23) rotate(90)" y2="876.32" x2="192.35" y1="844.52" x1="245.76" id="未命名的渐变_7-45"></linearGradient><linearGradient xlink:href="#未命名的渐变_7" gradientTransform="translate(1033.54 -17.48) rotate(90)" y2="876.63" x2="192.53" y1="844.83" x1="245.95" id="未命名的渐变_7-46"></linearGradient><linearGradient xlink:href="#未命名的渐变_7" gradientTransform="translate(1034.08 -17.73) rotate(90)" y2="876.95" x2="192.72" y1="845.15" x1="246.14" id="未命名的渐变_7-47"></linearGradient><linearGradient xlink:href="#未命名的渐变_7" gradientTransform="translate(1034.63 -17.99) rotate(90)" y2="877.26" x2="192.91" y1="845.46" x1="246.32" id="未命名的渐变_7-48"></linearGradient><linearGradient xlink:href="#未命名的渐变_7" gradientTransform="translate(1035.18 -18.24) rotate(90)" y2="877.58" x2="193.1" y1="845.78" x1="246.51" id="未命名的渐变_7-49"></linearGradient><linearGradient xlink:href="#未命名的渐变_7" gradientTransform="translate(1035.73 -18.49) rotate(90)" y2="877.89" x2="193.28" y1="846.1" x1="246.7" id="未命名的渐变_7-50"></linearGradient><linearGradient xlink:href="#未命名的渐变_7" gradientTransform="translate(1036.27 -18.75) rotate(90)" y2="878.21" x2="193.47" y1="846.41" x1="246.89" id="未命名的渐变_7-51"></linearGradient><linearGradient xlink:href="#未命名的渐变_7" gradientTransform="translate(1036.82 -19) rotate(90)" y2="878.53" x2="193.66" y1="846.73" x1="247.07" id="未命名的渐变_7-52"></linearGradient><linearGradient xlink:href="#未命名的渐变_7" gradientTransform="translate(1037.37 -19.25) rotate(90)" y2="878.84" x2="193.85" y1="847.04" x1="247.26" id="未命名的渐变_7-53"></linearGradient><linearGradient xlink:href="#未命名的渐变_7" gradientTransform="translate(1037.92 -19.51) rotate(90)" y2="879.16" x2="194.04" y1="847.36" x1="247.45" id="未命名的渐变_7-54"></linearGradient><linearGradient xlink:href="#未命名的渐变_7" gradientTransform="translate(1038.46 -19.76) rotate(90)" y2="879.47" x2="194.22" y1="847.67" x1="247.64" id="未命名的渐变_7-55"></linearGradient><linearGradient xlink:href="#未命名的渐变_7" gradientTransform="translate(1039.01 -20.01) rotate(90)" y2="879.79" x2="194.41" y1="847.99" x1="247.83" id="未命名的渐变_7-56"></linearGradient><linearGradient xlink:href="#未命名的渐变_7" gradientTransform="translate(1039.56 -20.27) rotate(90)" y2="880.1" x2="194.6" y1="848.31" x1="248.01" id="未命名的渐变_7-57"></linearGradient><linearGradient xlink:href="#未命名的渐变_7" gradientTransform="translate(1040.1 -20.52) rotate(90)" y2="880.42" x2="194.79" y1="848.62" x1="248.2" id="未命名的渐变_7-58"></linearGradient><linearGradient xlink:href="#未命名的渐变_7" gradientTransform="translate(1040.65 -20.77) rotate(90)" y2="880.73" x2="194.98" y1="848.94" x1="248.39" id="未命名的渐变_7-59"></linearGradient><linearGradient xlink:href="#未命名的渐变_7" gradientTransform="translate(1041.2 -21.03) rotate(90)" y2="881.05" x2="195.16" y1="849.25" x1="248.58" id="未命名的渐变_7-60"></linearGradient><linearGradient xlink:href="#未命名的渐变_7" gradientTransform="translate(1041.75 -21.28) rotate(90)" y2="881.37" x2="195.35" y1="849.57" x1="248.77" id="未命名的渐变_7-61"></linearGradient><linearGradient xlink:href="#未命名的渐变_7" gradientTransform="translate(1042.29 -21.53) rotate(90)" y2="881.68" x2="195.54" y1="849.88" x1="248.95" id="未命名的渐变_7-62"></linearGradient><linearGradient xlink:href="#未命名的渐变_7" gradientTransform="translate(1042.84 -21.79) rotate(90)" y2="882" x2="195.73" y1="850.2" x1="249.14" id="未命名的渐变_7-63"></linearGradient><linearGradient xlink:href="#未命名的渐变_7" gradientTransform="translate(1043.39 -22.04) rotate(90)" y2="882.31" x2="195.92" y1="850.51" x1="249.33" id="未命名的渐变_7-64"></linearGradient><linearGradient xlink:href="#未命名的渐变_7" gradientTransform="translate(1045.04 -22.8) rotate(90)" y2="883.26" x2="196.48" y1="851.46" x1="249.89" id="未命名的渐变_7-65"></linearGradient><linearGradient xlink:href="#未命名的渐变_7" y2="791.33" x2="174.87" y1="753.15" x1="228.33" id="未命名的渐变_7-66"></linearGradient><linearGradient xlink:href="#未命名的渐变_7" gradientTransform="matrix(1, 0, 0, 1, 0, 0)" y2="166.66" x2="100.7" y1="153.31" x1="113.51" id="未命名的渐变_7-67"></linearGradient><linearGradient xlink:href="#未命名的渐变_7" gradientTransform="matrix(1, 0, 0, 1, 0, 0)" y2="257.44" x2="127.65" y1="253.24" x1="131.67" id="未命名的渐变_7-68"></linearGradient><linearGradient xlink:href="#未命名的渐变_7" gradientTransform="matrix(1, 0, 0, 1, 0, 0)" y2="100.99" x2="303.69" y1="91.13" x1="313.14" id="未命名的渐变_7-69"></linearGradient><linearGradient xlink:href="#未命名的渐变_7" gradientTransform="matrix(1, 0, 0, 1, 0, 0)" y2="194.29" x2="330.19" y1="182.26" x1="341.72" id="未命名的渐变_7-70"></linearGradient><linearGradient xlink:href="#未命名的渐变_37" y2="148.91" x2="299.96" y1="139.93" x1="299.66" id="未命名的渐变_37-3"></linearGradient><linearGradient xlink:href="#未命名的渐变_37" y2="150.78" x2="308.48" y1="147.16" x1="308.36" id="未命名的渐变_37-4"></linearGradient></defs><title>空状态6</title><path d="M2.88,338.76C4.13,238.68,91.9,157.9,200,157.9c108.87,0,197.13,81.94,197.13,183" class="cls-2"></path><ellipse ry="17.92" rx="19.3" cy="269.29" cx="218.44" class="cls-3"></ellipse><ellipse ry="12.09" rx="14.73" cy="188.81" cx="267.25" class="cls-4"></ellipse><path d="M174.86,172.58c6.72,0,12.16-4.8,12.16-10.71a9.43,9.43,0,0,0-.69-3.52,209.9,209.9,0,0,0-23.59,2.83c0,.23,0,.45,0,.69C162.7,167.78,168.15,172.58,174.86,172.58Z" class="cls-4"></path><path d="M103.49,212.31c15.83,0,28.67-11.92,28.67-26.62a25.2,25.2,0,0,0-4.85-14.82,201.6,201.6,0,0,0-49.92,25.8C81.89,205.89,91.87,212.31,103.49,212.31Z" class="cls-5"></path><ellipse ry="13.27" rx="14.3" cy="269.29" cx="99.76" class="cls-6"></ellipse><ellipse ry="7.94" rx="8.56" cy="287.56" cx="290.99" class="cls-6"></ellipse><path d="M57.56,203.09c.63-2.56,1.3-7.62-3-8.53a6.33,6.33,0,0,0-7.19,4.4c-.89,2.72-2.09,14.55-2.33,17a5,5,0,0,1-.21,1,10.26,10.26,0,0,1-4.71,6c-3.84,2,3.73,13.45,14.6,10.35s11.59-9.15,10.86-17.4c-.64-7.22-5.92-2.8-7.88-8.26A7.84,7.84,0,0,1,57.56,203.09Z" class="cls-7"></path><path d="M52.07,226a8.07,8.07,0,0,0,1.76-1.43,11.92,11.92,0,0,0,1.43-1.86,12.82,12.82,0,0,0,1-2.14,15.59,15.59,0,0,0,.66-2.31,14.85,14.85,0,0,1-.43,2.38,13.79,13.79,0,0,1-.84,2.3,12.1,12.1,0,0,1-1.3,2.11,8.88,8.88,0,0,1-1.82,1.8Z" class="cls-8"></path><path d="M52.14,211.64a21.57,21.57,0,0,0-1,7.67,11.85,11.85,0,0,0,.82,3.7,25.62,25.62,0,0,1,1.29,3.79,23.06,23.06,0,0,1,.62,4,27,27,0,0,1-.09,4c-.06.66-.14,1.33-.25,2s-.19,1.26-.25,1.9-.09,1.26-.14,1.92l-.08,1,0,.49,0,.25v.12s0,.09-.11.12h-.78c-.15-.05-.08-.09-.1-.13v-.37l0-.49,0-1a16.82,16.82,0,0,1,0-2c.05-.67.16-1.36.27-2s.2-1.27.27-1.91a24.47,24.47,0,0,0-.3-7.64,27.93,27.93,0,0,0-1.08-3.71,12.7,12.7,0,0,1-.67-4A20.16,20.16,0,0,1,52,211.57Z" class="cls-9"></path><path d="M326.08,210.47c.39-1.59.81-4.71-1.83-5.28a3.91,3.91,0,0,0-4.44,2.72c-.55,1.68-1.3,9-1.44,10.49a2.55,2.55,0,0,1-.13.61,6.31,6.31,0,0,1-2.91,3.7c-2.37,1.21,2.3,8.32,9,6.4s7.17-5.66,6.71-10.76c-.39-4.46-3.65-1.73-4.86-5.11A4.84,4.84,0,0,1,326.08,210.47Z" class="cls-10"></path><path d="M322.69,224.62a5.32,5.32,0,0,0,1.09-.89,7.61,7.61,0,0,0,.88-1.15,7.31,7.31,0,0,0,.64-1.32,9,9,0,0,0,.41-1.43,9.24,9.24,0,0,1-.26,1.47,8.06,8.06,0,0,1-.52,1.42,7.71,7.71,0,0,1-.81,1.31,5.61,5.61,0,0,1-1.12,1.11Z" class="cls-11"></path><path d="M322.74,215.75a13,13,0,0,0-.65,4.74,7.39,7.39,0,0,0,.5,2.29,17,17,0,0,1,.8,2.34,14.48,14.48,0,0,1,.38,2.46,15.76,15.76,0,0,1,0,2.48c0,.42-.09.83-.16,1.24s-.11.78-.15,1.17-.06.78-.09,1.19l-.05.61,0,.3v.23s0,0-.07.07h-.47c-.1,0-.06-.05-.07-.08v-.53l0-.61a10.32,10.32,0,0,1,0-1.24,12.14,12.14,0,0,1,.17-1.23c.07-.39.12-.79.16-1.18a15.31,15.31,0,0,0-.18-4.73,17.09,17.09,0,0,0-.67-2.29,7.74,7.74,0,0,1-.41-2.46,12.27,12.27,0,0,1,.95-4.8Z" class="cls-12"></path><path d="M367.5,262c.22-.91.46-2.72-1.06-3a2.24,2.24,0,0,0-2.56,1.57,58.49,58.49,0,0,0-.84,6.05,1.53,1.53,0,0,1-.07.36,3.7,3.7,0,0,1-1.68,2.13c-1.37.7,1.33,4.8,5.21,3.69s4.14-3.26,3.87-6.21c-.23-2.57-2.11-1-2.81-2.95A2.81,2.81,0,0,1,367.5,262Z" class="cls-13"></path><path d="M365.54,270.2a3,3,0,0,0,.63-.51,4.23,4.23,0,0,0,.51-.67,4.86,4.86,0,0,0,.37-.76,5.64,5.64,0,0,0,.23-.83,5,5,0,0,1-.15.86,5.05,5.05,0,0,1-.3.82,4.87,4.87,0,0,1-.46.75,3.59,3.59,0,0,1-.65.64Z" class="cls-14"></path><path d="M365.57,265.08a7.77,7.77,0,0,0-.38,2.74,4.28,4.28,0,0,0,.29,1.32,8.94,8.94,0,0,1,.46,1.35,7.5,7.5,0,0,1,.22,1.42,9.73,9.73,0,0,1,0,1.43c0,.24-.05.48-.09.71s-.06.45-.09.68,0,.45-.05.69l0,.35,0,.17v.13s0,0,0,.05h-.27c-.06,0,0,0,0,0v-.66a5.79,5.79,0,0,1,0-.72c0-.24.06-.48.1-.71s.07-.45.09-.68a8.62,8.62,0,0,0-.1-2.73,9,9,0,0,0-.39-1.32,4.65,4.65,0,0,1-.24-1.42,7.24,7.24,0,0,1,.55-2.77Z" class="cls-15"></path><path d="M308.53,235c.22-.92.46-2.72-1.06-3.05a2.24,2.24,0,0,0-2.56,1.57,58.49,58.49,0,0,0-.84,6,1.53,1.53,0,0,1-.07.36,3.7,3.7,0,0,1-1.68,2.13c-1.37.7,1.33,4.8,5.21,3.69s4.13-3.26,3.87-6.2c-.23-2.58-2.11-1-2.81-3A2.81,2.81,0,0,1,308.53,235Z" class="cls-16"></path><path d="M306.57,243.13a2.67,2.67,0,0,0,.62-.51,3.24,3.24,0,0,0,.51-.66,3.89,3.89,0,0,0,.37-.77,4.55,4.55,0,0,0,.24-.82,4.94,4.94,0,0,1-.45,1.67,3.92,3.92,0,0,1-.47.75,3,3,0,0,1-.64.64Z" class="cls-17"></path><path d="M306.59,238a7.48,7.48,0,0,0-.37,2.73,4.16,4.16,0,0,0,.29,1.32,8.94,8.94,0,0,1,.46,1.35,8.56,8.56,0,0,1,.22,1.42,9.86,9.86,0,0,1,0,1.44c0,.23-.05.47-.09.71s-.07.45-.09.68,0,.45-.05.68l0,.35V249s0,0,0,0h-.28c-.05,0,0,0,0-.05v-.66a5.61,5.61,0,0,1,0-.71c0-.24.06-.49.1-.72s.07-.45.09-.68a8.85,8.85,0,0,0-.1-2.72,10.61,10.61,0,0,0-.39-1.33,4.6,4.6,0,0,1-.24-1.42,7.24,7.24,0,0,1,.55-2.77Z" class="cls-18"></path><path d="M85.86,231.25c.29-1.18.59-3.51-1.37-3.93a2.9,2.9,0,0,0-3.3,2,74.93,74.93,0,0,0-1.08,7.81,1.79,1.79,0,0,1-.09.46,4.68,4.68,0,0,1-2.17,2.75c-1.76.9,1.72,6.19,6.72,4.76s5.33-4.21,5-8c-.29-3.32-2.72-1.29-3.62-3.81A3.53,3.53,0,0,1,85.86,231.25Z" class="cls-19"></path><path d="M83.33,241.78a3.56,3.56,0,0,0,.81-.66,5,5,0,0,0,.66-.86,6.84,6.84,0,0,0,.48-1,7.56,7.56,0,0,0,.3-1.06,7,7,0,0,1-.2,1.09,6.36,6.36,0,0,1-.38,1.06,6,6,0,0,1-.6,1,4.13,4.13,0,0,1-.84.83Z" class="cls-20"></path><path d="M83.36,235.18a9.89,9.89,0,0,0-.48,3.53,5.39,5.39,0,0,0,.38,1.7,11.61,11.61,0,0,1,.59,1.75,10.12,10.12,0,0,1,.29,1.83,11.44,11.44,0,0,1,0,1.85c0,.3-.06.61-.11.91a8.81,8.81,0,0,0-.11.88c0,.29-.05.58-.07.88l0,.45,0,.23v.17s0,0,0,0h-.35c-.07,0,0,0,0-.06V249l0-.45a7.07,7.07,0,0,1,0-.92,6.79,6.79,0,0,1,.13-.92c0-.29.09-.59.12-.88a11.23,11.23,0,0,0-.14-3.52,13.26,13.26,0,0,0-.49-1.71,5.45,5.45,0,0,1-.31-1.83,9.27,9.27,0,0,1,.7-3.57Z" class="cls-21"></path><path d="M139.1,126.36a6.66,6.66,0,0,0-1.62.21,1.41,1.41,0,0,0,0-.21,6.59,6.59,0,1,0-13.18,0v.07a6.59,6.59,0,1,0,4.23,12.22,6.58,6.58,0,0,0,6.47-.53,6.59,6.59,0,1,0,4.09-11.76Z" class="cls-22"></path><path d="M122.55,136.43a3.91,3.91,0,0,0-.91.12v-.12a3.73,3.73,0,1,0-7.46,0v0a3.73,3.73,0,0,0,.51,7.42,3.63,3.63,0,0,0,1.88-.51,3.76,3.76,0,0,0,1.57.35,3.7,3.7,0,0,0,2.1-.65,3.67,3.67,0,0,0,2.31.81,3.73,3.73,0,1,0,0-7.46Z" class="cls-23"></path><path d="M241.76,221.57l-.33.24c-3.8-17.16-16.16-38.15-35-56.89-25.28-25.26-54.58-38.84-73.12-35.58a73.17,73.17,0,0,1,126.48-6.56C281,155,272.92,198.85,241.76,221.57Z" class="cls-24"></path><path d="M253.57,161.11a139.89,139.89,0,0,1-39.18,32.07l-48.63-41.27a140.45,140.45,0,0,1,74.52-81l41.9,35.56A140.15,140.15,0,0,1,253.57,161.11Z" class="cls-25"></path><path d="M282.18,106.48l-41.9-35.55a139.25,139.25,0,0,1,46.09-11.86A139.57,139.57,0,0,1,282.18,106.48Z" class="cls-26"></path><path d="M212.05,191.2c-3.27,1.93-6.62,3.77-10,5.45l-37.66-32c1.11-3.65,2.37-7.26,3.75-10.8Z" class="cls-27"></path><path d="M152.09,217.3c-6.57-21.15.83-37.56,17-43.15l22.76,19.32C189,210.38,174,220.35,152.09,217.3Z" class="cls-28"></path><path d="M158.09,210.24c-5.18-16.7.65-29.64,13.45-34.05l18,15.24C187.23,204.77,175.41,212.64,158.09,210.24Z" class="cls-1"></path><g class="cls-29"><rect transform="translate(-86.68 184.96) rotate(-49.68)" height="3.6" width="34.66" y="184.3" x="139.11" class="cls-30"></rect><rect transform="translate(-87.16 186.71) rotate(-49.68)" height="0.72" width="34.66" y="187.14" x="140.75" class="cls-31"></rect><rect transform="translate(-87.32 187.29) rotate(-49.68)" height="0.72" width="34.66" y="187.61" x="141.3" class="cls-32"></rect><rect transform="translate(-87.49 187.87) rotate(-49.68)" height="0.72" width="34.66" y="188.07" x="141.85" class="cls-33"></rect><rect transform="translate(-87.65 188.45) rotate(-49.68)" height="0.72" width="34.66" y="188.53" x="142.4" class="cls-34"></rect><rect transform="translate(-87.81 189.04) rotate(-49.68)" height="0.72" width="34.66" y="189" x="142.94" class="cls-35"></rect><rect transform="translate(-87.97 189.62) rotate(-49.68)" height="0.72" width="34.66" y="189.46" x="143.49" class="cls-36"></rect><rect transform="translate(-88.13 190.2) rotate(-49.68)" height="0.72" width="34.66" y="189.93" x="144.04" class="cls-37"></rect><rect transform="translate(-88.29 190.78) rotate(-49.68)" height="0.72" width="34.66" y="190.39" x="144.59" class="cls-38"></rect><rect transform="translate(-88.45 191.36) rotate(-49.68)" height="0.72" width="34.66" y="190.86" x="145.13" class="cls-39"></rect><rect transform="translate(-88.61 191.94) rotate(-49.68)" height="0.72" width="34.66" y="191.32" x="145.68" class="cls-40"></rect><rect transform="translate(-88.77 192.52) rotate(-49.68)" height="0.72" width="34.66" y="191.79" x="146.23" class="cls-41"></rect><rect transform="translate(-88.93 193.11) rotate(-49.68)" height="0.72" width="34.66" y="192.25" x="146.78" class="cls-42"></rect><rect transform="translate(-89.1 193.69) rotate(-49.68)" height="0.72" width="34.66" y="192.72" x="147.32" class="cls-43"></rect><rect transform="translate(-89.26 194.27) rotate(-49.68)" height="0.72" width="34.66" y="193.18" x="147.87" class="cls-44"></rect><rect transform="translate(-89.42 194.85) rotate(-49.68)" height="0.72" width="34.66" y="193.64" x="148.42" class="cls-45"></rect><rect transform="translate(-89.58 195.43) rotate(-49.68)" height="0.72" width="34.66" y="194.11" x="148.96" class="cls-46"></rect><rect transform="translate(-89.74 196.01) rotate(-49.68)" height="0.72" width="34.66" y="194.57" x="149.51" class="cls-47"></rect><rect transform="translate(-89.9 196.59) rotate(-49.68)" height="0.72" width="34.66" y="195.04" x="150.06" class="cls-48"></rect><rect transform="matrix(0.65, -0.76, 0.76, 0.65, -90.06, 197.18)" height="0.72" width="34.66" y="195.5" x="150.61" class="cls-49"></rect><rect transform="translate(-90.22 197.76) rotate(-49.68)" height="0.72" width="34.66" y="195.97" x="151.15" class="cls-50"></rect><rect transform="translate(-90.38 198.34) rotate(-49.68)" height="0.72" width="34.66" y="196.43" x="151.7" class="cls-51"></rect><rect transform="translate(-90.54 198.92) rotate(-49.68)" height="0.72" width="34.66" y="196.9" x="152.25" class="cls-52"></rect><rect transform="translate(-90.71 199.5) rotate(-49.68)" height="0.72" width="34.66" y="197.36" x="152.8" class="cls-53"></rect><rect transform="translate(-90.87 200.08) rotate(-49.68)" height="0.72" width="34.66" y="197.83" x="153.34" class="cls-54"></rect><rect transform="translate(-91.03 200.66) rotate(-49.68)" height="0.72" width="34.66" y="198.29" x="153.89" class="cls-55"></rect><rect transform="translate(-91.19 201.25) rotate(-49.68)" height="0.72" width="34.66" y="198.75" x="154.44" class="cls-56"></rect><rect transform="translate(-91.35 201.83) rotate(-49.68)" height="0.72" width="34.66" y="199.22" x="154.99" class="cls-57"></rect><rect transform="translate(-91.51 202.41) rotate(-49.68)" height="0.72" width="34.66" y="199.68" x="155.53" class="cls-58"></rect><rect transform="translate(-91.67 202.99) rotate(-49.68)" height="0.72" width="34.66" y="200.15" x="156.08" class="cls-59"></rect><rect transform="matrix(0.65, -0.76, 0.76, 0.65, -91.83, 203.57)" height="0.72" width="34.66" y="200.61" x="156.63" class="cls-60"></rect><rect transform="translate(-91.99 204.15) rotate(-49.68)" height="0.72" width="34.66" y="201.08" x="157.18" class="cls-61"></rect><rect transform="translate(-92.15 204.73) rotate(-49.68)" height="0.72" width="34.66" y="201.54" x="157.72" class="cls-62"></rect><rect transform="translate(-92.32 205.31) rotate(-49.68)" height="0.72" width="34.66" y="202.01" x="158.27" class="cls-63"></rect><rect transform="translate(-92.48 205.9) rotate(-49.68)" height="0.72" width="34.66" y="202.47" x="158.82" class="cls-64"></rect><rect transform="translate(-92.64 206.48) rotate(-49.68)" height="0.72" width="34.66" y="202.94" x="159.37" class="cls-65"></rect><rect transform="translate(-92.8 207.06) rotate(-49.68)" height="0.72" width="34.66" y="203.4" x="159.91" class="cls-66"></rect><rect transform="translate(-92.96 207.64) rotate(-49.68)" height="0.72" width="34.66" y="203.87" x="160.46" class="cls-67"></rect><rect transform="translate(-93.12 208.22) rotate(-49.68)" height="0.72" width="34.66" y="204.33" x="161.01" class="cls-68"></rect><rect transform="translate(-93.28 208.8) rotate(-49.68)" height="0.72" width="34.66" y="204.79" x="161.56" class="cls-69"></rect><rect transform="translate(-93.44 209.38) rotate(-49.68)" height="0.72" width="34.66" y="205.26" x="162.1" class="cls-70"></rect><rect transform="translate(-93.6 209.97) rotate(-49.68)" height="0.72" width="34.66" y="205.72" x="162.65" class="cls-71"></rect><rect transform="translate(-93.76 210.55) rotate(-49.68)" height="0.72" width="34.66" y="206.19" x="163.2" class="cls-72"></rect><rect transform="translate(-94.25 212.3) rotate(-49.68)" height="3.6" width="34.66" y="206.14" x="164.85" class="cls-73"></rect></g><circle r="18.88" cy="121.25" cx="233.61" class="cls-74"></circle><circle r="18.88" cy="121.25" cx="233.61" class="cls-75"></circle><polygon points="102.93 161.19 107.14 158.98 106.34 163.67 109.75 166.99 105.04 167.68 102.93 171.95 100.82 167.68 96.11 166.99 99.52 163.67 98.72 158.98 102.93 161.19" class="cls-76"></polygon><polygon points="128.35 255.72 129.67 255.02 129.42 256.5 130.49 257.54 129.01 257.76 128.35 259.1 127.68 257.76 126.2 257.54 127.28 256.5 127.02 255.02 128.35 255.72" class="cls-77"></polygon><polygon points="305.33 96.95 308.44 95.31 307.85 98.78 310.37 101.23 306.89 101.73 305.33 104.88 303.78 101.73 300.31 101.23 302.82 98.78 302.23 95.31 305.33 96.95" class="cls-78"></polygon><polygon points="332.19 189.36 335.98 187.37 335.26 191.59 338.33 194.58 334.09 195.2 332.19 199.04 330.29 195.2 326.05 194.58 329.12 191.59 328.4 187.37 332.19 189.36" class="cls-79"></polygon><path d="M303.4,144.07a3.1,3.1,0,0,0-.81.1v-.1a3.31,3.31,0,1,0-6.62,0v0a3.31,3.31,0,0,0,.45,6.59,3.36,3.36,0,0,0,1.67-.45,3.37,3.37,0,0,0,1.39.31,3.29,3.29,0,0,0,1.87-.58,3.26,3.26,0,0,0,2,.72,3.31,3.31,0,1,0,0-6.62Z" class="cls-80"></path><path d="M309.86,148.83a1.24,1.24,0,0,0-.33,0,.06.06,0,0,0,0,0,1.34,1.34,0,1,0-2.67,0h0a1.34,1.34,0,0,0,.18,2.66,1.37,1.37,0,0,0,.67-.18,1.48,1.48,0,0,0,.56.12,1.34,1.34,0,0,1,1.58.06,1.34,1.34,0,1,0,0-2.67Z" class="cls-81"></path></svg>