<?xml version="1.0" standalone="no"?><!DOCTYPE svg PUBLIC "-//W3C//DTD SVG 1.1//EN" "http://www.w3.org/Graphics/SVG/1.1/DTD/svg11.dtd"><svg t="1601804315564" class="icon" viewBox="0 0 1024 1024" version="1.1" xmlns="http://www.w3.org/2000/svg" p-id="3919" xmlns:xlink="http://www.w3.org/1999/xlink" width="128" height="128"><defs><style type="text/css"></style></defs><path d="M896 972.8h-819.2C34.4576 972.8 0 938.3424 0 896v-102.4a25.6 25.6 0 0 1 51.2 0v102.4a25.6 25.6 0 0 0 25.6 25.6h819.2a25.6 25.6 0 0 0 25.6-25.6v-102.4a25.6 25.6 0 0 1 51.2 0v102.4c0 42.3424-34.4576 76.8-76.8 76.8z" fill="" p-id="3920"></path><path d="M760.5248 442.6752l-256-256a25.6 25.6 0 0 0-36.1984 0l-256 256a25.6 25.6 0 0 0 36.1984 36.1984L460.8 266.5984V793.6a25.6 25.6 0 0 0 51.2 0V266.5984l212.2752 212.2752a25.4976 25.4976 0 0 0 36.2496 0 25.6 25.6 0 0 0 0-36.1984z" fill="" p-id="3921"></path></svg>