<?xml version="1.0" standalone="no"?><!DOCTYPE svg PUBLIC "-//W3C//DTD SVG 1.1//EN" "http://www.w3.org/Graphics/SVG/1.1/DTD/svg11.dtd"><svg t="1602835377428" class="icon" viewBox="0 0 1024 1024" version="1.1" xmlns="http://www.w3.org/2000/svg" p-id="3096" xmlns:xlink="http://www.w3.org/1999/xlink" width="128" height="128"><defs><style type="text/css"></style></defs><path d="M857.6 379.733333l-157.866667-145.066666c-12.8-12.8-29.866667-8.533333-42.666666 0-12.8 12.8-8.533333 29.866667 0 42.666666l132.266666 119.466667h-196.266666c-234.666667 0-426.666667 174.933333-452.266667 409.6 0 17.066667 8.533333 29.866667 25.6 34.133333H170.666667c17.066667 0 29.866667-12.8 29.866666-25.6 21.333333-204.8 192-358.4 392.533334-358.4h196.266666l-132.266666 119.466667c-12.8 12.8-12.8 29.866667 0 42.666667 4.266667 8.533333 12.8 8.533333 21.333333 8.533333s12.8-4.266667 21.333333-8.533333l157.866667-145.066667c12.8-12.8 21.333333-29.866667 21.333333-46.933333s-4.266667-34.133333-21.333333-46.933334z" fill="#409EFF" p-id="3097"></path></svg>
